# xmcd CD database file
#
# Track frame offsets:
#	187
#	14687
#	31274
#	43362
#	53207
#	67359
#	80497
#	92164
#	105842
#	121227
#	133202
#	148587
#	161109
#	176552
#	190744
#	203357
#
# Disc length: 2915 seconds
#
# Revision: 0
# Processed by: cddbd v1.5.1PL2 Copyright (c) Steve Scherf et al.
# Submitted via: CDex 1.51
#
DISCID=e40b6110
DTITLE=マランド楽団 - マランド楽団のすべて　No5  マランド・プレイズ・ラテン
DYEAR=1900
DGENRE=Latin
TTITLE0=キサス・キサス・キサス
TTITLE1=コパカバーナ
TTITLE2=オルフェのサンバ
TTITLE3=オルフェのサンバ
TTITLE4=国境の南
TTITLE5=悲しみよさようなら
TTITLE6=ダンシング・イン・ザ・ダーク
TTITLE7=マリオ・ラ・オ
TTITLE8=ラテン・ファンタジー
TTITLE9=陽気なフランシスコ
TTITLE10=月に歌う
TTITLE11=ジャイブ・サンバ
TTITLE12=セイ・ユー・ラブ・ミー
TTITLE13=マラカナ
TTITLE14=かわいい下町娘
TTITLE15=トゥンバイート
EXTD=
EXTT0=
EXTT1=
EXTT2=
EXTT3=
EXTT4=
EXTT5=
EXTT6=
EXTT7=
EXTT8=
EXTT9=
EXTT10=
EXTT11=
EXTT12=
EXTT13=
EXTT14=
EXTT15=
PLAYORDER=
